<?xml version = "1.0" encoding="UTF-8"?>
<svg id = "Glyph" xmlns="http://www.w3.org/2000/svg" viewBox="0 0 33.9 50.06">
  <defs>
    <style>
      .cls-1 {
        stroke-width: 0px;
      }
    </style>
  </defs>
  <path class="cls-1" d="M33.46,3.62c-.06-1.52-1.25-2.75-2.78-2.87L20.67,0c-1.63-.12-3.08,1.14-3.21,2.77s1.14,3.09,2.77,3.21l3.34.25-5.58,5.41c-1.81-1.04-3.86-1.59-5.99-1.59C5.38,10.06,0,15.44,0,22.06c0,5.49,3.74,10.25,9,11.61v4.39h-3c-1.65,0-3,1.34-3,3s1.35,3,3,3h3v3c0,1.65,1.35,3,3,3s3-1.35,3-3v-3h3c1.65,0,3-1.35,3-3s-1.35-3-3-3h-3v-4.39c5.26-1.36,9-6.12,9-11.61,0-2.2-.59-4.33-1.72-6.2l5.48-5.31.14,3.36c.08,1.66,1.48,2.93,3.12,2.87,1.65-.08,2.94-1.48,2.88-3.14l-.44-10.02ZM12,28.06c-3.31,0-6-2.7-6-6s2.69-6,6-6,6,2.69,6,6-2.69,6-6,6Z"/>
</svg>